<?xml version="1.0" standalone="no"?>
<!DOCTYPE svg PUBLIC "-//W3C//DTD SVG 20010904//EN"
 "http://www.w3.org/TR/2001/REC-SVG-20010904/DTD/svg10.dtd">
<svg version="1.0" xmlns="http://www.w3.org/2000/svg"
 width="700.000000pt" height="700.000000pt" viewBox="0 0 700.000000 700.000000"
 preserveAspectRatio="xMidYMid meet">
<metadata>
Created by potrace 1.14, written by Peter Selinger 2001-2017
</metadata>
<g transform="translate(0.000000,700.000000) scale(0.100000,-0.100000)"
fill="#000000" stroke="none">
<path d="M6020 5326 c-3 -2 -21 -7 -40 -10 -195 -32 -383 -178 -480 -374 -58
-117 -74 -305 -40 -457 l11 -50 -437 -433 c-489 -485 -425 -437 -550 -417 -64
11 -135 12 -189 3 -27 -5 -69 -11 -92 -14 l-42 -6 -297 296 -296 297 6 42 c26
157 26 205 2 334 -13 69 -77 202 -122 253 -162 186 -318 262 -534 261 -195 -1
-342 -63 -481 -201 -146 -146 -202 -287 -195 -495 2 -60 7 -121 10 -135 3 -14
8 -35 10 -48 4 -19 -89 -117 -572 -603 l-577 -580 -55 11 c-30 5 -66 13 -80
16 -93 20 -254 3 -346 -36 -153 -66 -293 -202 -363 -353 -40 -87 -55 -165 -55
-287 -1 -100 3 -126 28 -203 71 -218 251 -389 468 -445 359 -92 730 118 832
471 30 103 26 257 -9 367 -5 16 110 136 582 607 l588 589 70 -13 c95 -17 205
-17 293 0 l72 15 294 -294 c293 -292 294 -294 286 -326 -76 -293 34 -586 284
-757 115 -79 237 -112 395 -108 140 5 239 34 342 103 126 83 246 239 283 366
34 120 35 310 1 407 -3 8 130 150 337 358 588 591 529 535 563 528 90 -20 240
-26 320 -13 237 40 449 236 521 483 25 85 25 267 0 360 -32 121 -105 241 -194
319 -20 17 -41 37 -48 44 -29 29 -166 93 -235 111 -66 16 -258 29 -269 17z"/>
</g>
</svg>
